<svg width="55" height="54" viewBox="0 0 55 54" fill="none" xmlns="http://www.w3.org/2000/svg">
<g id="f7:checkmark-2">
<path id="Vector" d="M5.30596 26.3366C6.08337 26.3366 6.60452 26.6101 7.12855 27.2835L7.24084 27.4356L17.7234 41.1097L18.8079 39.3861L21.4713 42.7663L20.0844 44.9433C19.5806 45.7181 18.8809 46.1399 18.0037 46.1935L17.8127 46.1992C16.9105 46.1992 16.2617 45.8281 15.6129 45.0677L15.4737 44.8984L3.79913 30.0803C3.37107 29.5428 3.14648 28.9593 3.14648 28.4447C3.14648 27.2108 4.04674 26.3366 5.30596 26.3366ZM50.4149 7.88672C51.6521 7.88672 52.4842 8.694 52.4842 9.92693C52.4842 10.3851 52.3421 10.826 52.0264 11.3741L51.8997 11.5855L30.6418 44.9433C30.1025 45.7726 29.3375 46.1992 28.3701 46.1992C27.4679 46.1992 26.8191 45.8281 26.1703 45.0677L26.0311 44.8984L14.3565 30.0803C13.9285 29.5428 13.7039 28.9593 13.7039 28.4447C13.7039 27.2108 14.6042 26.3366 15.8634 26.3366C16.6408 26.3366 17.1619 26.6101 17.686 27.2835L17.7983 27.4356L28.2808 41.1097L48.4801 9.02973C49.0204 8.17845 49.5377 7.88672 50.4149 7.88672ZM39.8575 7.88672C41.0947 7.88672 41.9268 8.694 41.9268 9.92693C41.9268 10.3851 41.7847 10.826 41.469 11.3741L41.3423 11.5855L27.3172 33.5935L24.6481 30.1109L37.9226 9.02973C38.4265 8.23488 38.9112 7.92785 39.6867 7.8915L39.8575 7.88672Z" fill="black"/>
</g>
</svg>
