<svg width="90" height="91" viewBox="0 0 90 91" fill="none" xmlns="http://www.w3.org/2000/svg">
<g id="IMAGE" clip-path="url(#clip0_97_2059)">
<path id="Vector" d="M14.0787 71.6223C13.8076 72.3011 13.1492 72.7141 12.4516 72.7141C12.2373 72.7141 12.0186 72.6751 11.8064 72.5909C5.11182 69.9683 1.05045 66.5978 0.0575231 62.8466C-0.187427 61.9235 0.372459 60.9766 1.30853 60.7366C2.24459 60.4966 3.20033 61.0479 3.44309 61.9733C4.13201 64.5764 7.56133 67.2075 13.0989 69.3781C13.9956 69.7284 14.4353 70.7337 14.0787 71.6223ZM20.0254 53.5155C20.3557 53.7923 20.7581 53.9284 21.1583 53.9284C21.6525 53.9284 22.1447 53.7209 22.4901 53.3209C23.1179 52.5944 23.0282 51.5026 22.2934 50.8821C21.4251 50.1514 20.5765 49.3774 19.7695 48.5796C12.0798 40.978 8.05341 31.316 9.2738 23.6149C12.5544 23.1069 16.185 23.5176 19.8635 24.7327C20.0188 24.8127 20.1895 24.871 20.3665 24.9035C25.2634 26.6158 30.2236 29.7355 34.5278 33.9905C35.6104 35.0606 36.6427 36.1978 37.594 37.3653C38.1998 38.1091 39.3021 38.2258 40.0544 37.6269C40.8069 37.0281 40.925 35.9384 40.3191 35.1946C39.2891 33.9299 38.1736 32.7019 37.0013 31.5431C32.5791 27.1715 27.4789 23.896 22.3502 21.9632C22.2256 18.8347 22.7614 15.9788 23.8965 13.7281C26.7856 14.3486 29.7753 16.0868 32.4632 18.7179C32.0892 20.1947 31.7896 21.721 31.5731 23.2863C31.4418 24.2332 32.1111 25.1045 33.069 25.2343C34.0269 25.364 34.9083 24.7025 35.0396 23.7555C36.2162 15.2804 39.9385 8.16524 45.0869 4.44875C50.2353 8.16524 53.9576 15.2782 55.1343 23.7511C55.2654 24.6981 56.1468 25.3597 57.1048 25.2299C58.0627 25.1003 58.732 24.2268 58.6007 23.282C58.3842 21.7167 58.0846 20.1925 57.7106 18.7179C60.3985 16.0868 63.3905 14.3486 66.2774 13.7281C67.4102 15.9788 67.9483 18.8347 67.8236 21.9632C62.6949 23.8982 57.5947 27.1736 53.1725 31.5431C52.0002 32.7019 50.8848 33.9299 49.8547 35.1946C49.2489 35.9384 49.367 37.0281 50.1193 37.6269C50.8717 38.2258 51.974 38.1091 52.5797 37.3653C53.5311 36.1978 54.5634 35.0628 55.646 33.9905C59.9501 29.7355 64.9082 26.6136 69.8051 24.9035C69.9844 24.871 70.155 24.8127 70.3102 24.7327C73.9889 23.5198 77.6195 23.1069 80.9 23.6149C82.1204 31.3182 78.094 40.9802 70.4043 48.5796C69.5973 49.3774 68.7487 50.1514 67.8805 50.8821C67.1456 51.5005 67.0559 52.5924 67.6814 53.3209C68.3069 54.0473 69.4113 54.136 70.1485 53.5177C71.0867 52.7285 72.0052 51.8896 72.8779 51.027C81.7661 42.2427 86.1686 30.7517 84.0997 21.7556C83.951 21.107 83.4393 20.6011 82.7809 20.4519C79.2444 19.6563 75.3274 19.8271 71.336 20.8497C71.2989 17.0403 70.3802 13.5724 68.6788 10.9023C68.32 10.3402 67.6661 10.0311 66.9969 10.1067C63.4823 10.5089 59.8474 12.2385 56.5799 15.0383C54.3207 8.79654 50.618 3.76124 46.0164 0.898739C45.4478 0.54417 44.7216 0.54417 44.153 0.898739C39.5514 3.76124 35.8487 8.79654 33.5895 15.0383C30.3221 12.2385 26.6915 10.5089 23.1725 10.1067C22.5033 10.0311 21.8516 10.3402 21.4929 10.9023C19.7936 13.5724 18.8772 17.0403 18.84 20.8497C14.8507 19.8271 10.9316 19.6563 7.39512 20.4519C6.73899 20.5989 6.22722 21.107 6.07631 21.7556C4.00517 30.7517 8.40991 42.2407 17.2981 51.027C18.1685 51.8874 19.0872 52.7242 20.0254 53.5155ZM19.1965 67.041C19.5158 66.1394 19.0346 65.1536 18.1227 64.838C12.8431 63.0132 9.69152 60.7064 9.69152 58.6697C9.69152 57.353 11.065 55.8656 13.5582 54.4797C14.4002 54.0128 14.6998 52.9577 14.2253 52.1253C13.7529 51.293 12.6856 50.9967 11.8436 51.4659C8.09279 53.5501 6.19222 55.9737 6.19222 58.6719C6.19222 62.4078 9.91897 65.6682 16.9678 68.1069C17.1582 68.1739 17.3527 68.2042 17.5453 68.2042C18.2691 68.202 18.945 67.7544 19.1965 67.041ZM71.7056 64.959C70.7914 65.2659 70.3015 66.2476 70.612 67.1534C70.8592 67.8734 71.5394 68.3274 72.2677 68.3274C72.4536 68.3274 72.6438 68.2971 72.8297 68.2344C80.128 65.7849 83.9881 62.477 83.9881 58.6697C83.9881 56.0688 82.2166 53.7187 78.7239 51.6842C77.8906 51.1999 76.8189 51.4724 76.329 52.2961C75.8392 53.1198 76.1147 54.1793 76.948 54.6635C79.2313 55.9932 80.4889 57.4158 80.4889 58.6675C80.4866 60.7301 77.123 63.1407 71.7056 64.959ZM62.4413 77.6002C62.4413 79.3514 60.9999 80.7784 59.2263 80.7784C58.2596 80.7784 57.4766 81.5524 57.4766 82.508C57.4766 83.4636 58.2596 84.2376 59.2263 84.2376C62.929 84.2376 65.9405 81.2605 65.9405 77.6002C65.9405 76.6446 65.1575 75.8706 64.1908 75.8706C63.2241 75.8706 62.4413 76.6446 62.4413 77.6002ZM88.6903 60.7366C87.7564 60.4966 86.7985 61.0479 86.5557 61.9733C85.8668 64.5784 82.4398 67.2075 76.902 69.3781C76.0032 69.7306 75.5636 70.7359 75.9201 71.6244C76.1913 72.3033 76.8517 72.7162 77.5472 72.7162C77.7616 72.7162 77.9803 72.6773 78.1924 72.593C84.887 69.9683 88.9506 66.5978 89.9435 62.8466C90.1863 61.9235 89.6242 60.9788 88.6903 60.7366ZM57.599 61.4868C57.599 62.4295 56.8249 63.1947 55.8713 63.1947C54.9046 63.1947 54.1217 63.9687 54.1217 64.9244C54.1217 65.88 54.9046 66.654 55.8713 66.654C58.7538 66.654 61.0984 64.3363 61.0984 61.4868C61.0984 60.5312 60.3154 59.7572 59.3487 59.7572C58.382 59.7572 57.599 60.5334 57.599 61.4868ZM52.5995 50.4411H53.0566C54.0232 50.4411 54.8062 49.6671 54.8062 48.7115C54.8062 47.756 54.0232 46.982 53.0566 46.982H52.5995C51.6328 46.982 50.8498 47.756 50.8498 48.7115C50.8498 49.6671 51.635 50.4411 52.5995 50.4411ZM70.6733 70.271C72.2764 72.4698 73.125 75.0621 73.125 77.7667C73.125 84.8603 67.2877 90.6328 60.1098 90.6328H30.0706C22.8948 90.6328 17.0554 84.8625 17.0554 77.7689C17.0554 73.0621 19.693 68.7555 23.7871 66.5114C23.2141 65.2314 22.897 63.8132 22.897 62.3256C22.897 57.8006 25.8386 53.9414 29.9305 52.5188C29.0273 51.2259 28.4959 49.6585 28.4959 47.9699C28.4959 43.5486 32.1352 39.951 36.6077 39.951H53.5727C58.0452 39.951 61.6845 43.5486 61.6845 47.9699C61.6845 52.3912 58.0452 55.9888 53.5727 55.9888H36.6077C35.5186 55.9888 34.4796 55.7748 33.5283 55.3899C33.4889 55.3921 33.4473 55.3943 33.408 55.3943C29.5413 55.3943 26.3963 58.5032 26.3963 62.3256C26.3963 63.7548 26.8359 65.0866 27.5904 66.1914C27.6495 66.2626 27.7041 66.3384 27.7523 66.4183C29.0296 68.1372 31.0897 69.2571 33.408 69.2571H56.7724C60.639 69.2571 63.7841 66.1481 63.7841 62.3256C63.7841 60.2674 62.8567 58.3238 61.2383 56.9941C60.4948 56.3845 60.3942 55.2926 61.0109 54.5575C61.6277 53.8224 62.7321 53.7231 63.4758 54.3328C65.8946 56.3218 67.2834 59.234 67.2834 62.3236C67.2834 68.0528 62.5681 72.7141 56.7724 72.7141H33.408C30.3789 72.7141 27.645 71.4407 25.7248 69.4062C22.5909 71.0083 20.5546 74.234 20.5546 77.7667C20.5546 82.9534 24.8239 87.1737 30.0706 87.1737H60.1098C65.3565 87.1737 69.6257 82.9534 69.6257 77.7689C69.6257 75.795 69.0068 73.9032 67.8345 72.2969C67.2702 71.5229 67.4474 70.4418 68.2304 69.8819C69.0134 69.3219 70.1069 69.497 70.6733 70.271ZM31.9951 47.9699C31.9951 50.4843 34.0641 52.5296 36.6077 52.5296H53.5727C56.1162 52.5296 58.1852 50.4843 58.1852 47.9699C58.1852 45.4555 56.1162 43.4103 53.5727 43.4103H36.6077C34.0641 43.4103 31.9951 45.4555 31.9951 47.9699Z" fill="#161717"/>
</g>
<defs>
<clipPath id="clip0_97_2059">
<rect width="90" height="90" fill="white" transform="translate(0 0.632812)"/>
</clipPath>
</defs>
</svg>
