<svg width="30" height="35" viewBox="0 0 30 35" fill="none" xmlns="http://www.w3.org/2000/svg">
<path d="M28.6283 0.882812H2.05946C1.42051 0.882812 0.904297 1.48659 0.904297 2.23392V33.3095C0.904297 34.0568 1.42051 34.6606 2.05946 34.6606H28.6283C29.2673 34.6606 29.7835 34.0568 29.7835 33.3095V2.23392C29.7835 1.48659 29.2673 0.882812 28.6283 0.882812ZM27.4731 31.9584H20.8273V21.5802H24.5816L25.1447 16.4839H20.8273V13.2286C20.8273 11.7508 21.1775 10.7459 22.986 10.7459H25.2928V6.18592C24.8921 6.12259 23.5239 5.98326 21.9283 5.98326C18.6 5.98326 16.3222 8.36037 16.3222 12.7219V16.4797H12.5606V21.5759H16.3258V31.9584H3.21463V3.58504H27.4731V31.9584Z" fill="black"/>
</svg>
