<svg width="92" height="104" viewBox="0 0 92 104" fill="none" xmlns="http://www.w3.org/2000/svg">
<g id="IMAGE" clip-path="url(#clip0_97_2064)">
<path id="Vector" d="M56.5418 62.6397C55.7937 61.9979 54.5066 61.9438 53.667 62.5157C52.4402 63.3536 49.3639 64.1973 45.2572 64.1973C41.1478 64.1973 38.0715 63.3516 36.8473 62.5157C36.0077 61.9438 34.7206 61.9979 33.9727 62.6397C33.2245 63.2796 33.295 64.2635 34.1347 64.8372C36.4028 66.387 40.5618 67.3109 45.2572 67.3109C49.9551 67.3109 54.1117 66.387 56.3796 64.8372C57.2193 64.2635 57.2926 63.2816 56.5418 62.6397Z" fill="#111112"/>
<path id="Vector_2" d="M40.4409 48.9215C39.6823 48.2857 38.3953 48.2417 37.566 48.8215C36.9775 49.2315 35.3426 49.6734 33.1428 49.6734C30.9429 49.6734 29.308 49.2315 28.7195 48.8215C27.8876 48.2417 26.6006 48.2877 25.8446 48.9215C25.0861 49.5574 25.1463 50.5413 25.9754 51.1191C27.4717 52.163 30.1503 52.7848 33.1428 52.7848C36.1352 52.7848 38.8164 52.163 40.3101 51.1191C41.1393 50.5413 41.1994 49.5554 40.4409 48.9215Z" fill="#111112"/>
<path id="Vector_3" d="M42.3975 41.6249C40.4905 40.679 37.0325 40.1152 33.1428 40.1152C29.2531 40.1152 25.7923 40.679 23.8881 41.6249C22.9463 42.0928 22.677 43.0567 23.289 43.7765C23.6789 44.2344 24.3327 44.4843 24.9971 44.4843C25.3764 44.4843 25.7609 44.4024 26.1037 44.2324C27.116 43.7306 29.6847 43.2246 33.1428 43.2246C36.6008 43.2246 39.1696 43.7306 40.1819 44.2324C41.1261 44.7003 42.3871 44.4964 42.9965 43.7745C43.6086 43.0567 43.3417 42.0928 42.3975 41.6249Z" fill="#111112"/>
<path id="Vector_4" d="M64.6694 48.9215C63.9109 48.2857 62.6239 48.2417 61.7946 48.8215C61.2061 49.2315 59.5712 49.6734 57.3712 49.6734C55.1714 49.6734 53.5366 49.2315 52.948 48.8215C52.1188 48.2417 50.8292 48.2877 50.0732 48.9215C49.3146 49.5574 49.3747 50.5413 50.204 51.1191C51.7003 52.163 54.3788 52.7848 57.3712 52.7848C60.3638 52.7848 63.0424 52.163 64.5387 51.1191C65.3705 50.5413 65.428 49.5554 64.6694 48.9215Z" fill="#111112"/>
<path id="Vector_5" d="M66.6274 41.6249C64.7204 40.679 61.2623 40.1152 57.3699 40.1152C53.4804 40.1152 50.0197 40.679 48.1153 41.6249C47.1711 42.0928 46.9041 43.0567 47.5163 43.7765C48.1285 44.4964 49.3893 44.7023 50.3335 44.2344C51.3459 43.7326 53.9146 43.2266 57.3727 43.2266C60.8307 43.2266 63.3994 43.7326 64.4118 44.2344C64.7545 44.4044 65.139 44.4863 65.5182 44.4863C66.1853 44.4863 66.8367 44.2364 67.2264 43.7785C67.8386 43.0567 67.569 42.0928 66.6274 41.6249Z" fill="#111112"/>
<path id="Vector_6" d="M84.7043 92.4557C81.1101 90.1202 76.2081 88.8344 70.9032 88.8344C63.9216 88.8344 59.0929 87.6447 57.0604 87.0267V79.9721C67.5262 77.0706 75.6614 70.4279 78.6879 62.1673C85.2404 61.5395 90.3334 57.2463 90.3334 52.0792C90.3334 47.3022 85.9126 43.1968 79.9695 42.1611V38.7157C82.3213 32.4148 82.1747 26.2261 81.628 22.1248C81.3168 19.7813 80.8458 17.8536 80.5058 16.6499C80.1894 15.5321 79.9853 14.9282 79.8335 14.5782C79.8021 14.4862 79.7628 14.3963 79.708 14.3083C77.4531 10.6549 73.4431 7.54152 68.311 5.20796C68.2062 5.14997 68.0965 5.10198 67.9814 5.05999C61.6746 2.2625 53.7199 0.632812 45.2578 0.632812C38.5954 0.632812 32.0794 1.64062 26.4162 3.54628C25.3881 3.89221 24.9199 4.81004 25.3725 5.59789C25.8251 6.38374 27.0256 6.74167 28.0563 6.39574C33.2068 4.66206 39.1551 3.74623 45.2578 3.74623C52.0092 3.74623 58.3762 4.85603 63.6549 6.79966C61.1804 8.42736 58.2348 9.99507 54.714 11.5568C53.741 11.9887 53.4113 12.9405 53.9763 13.6844C54.3529 14.1823 55.0358 14.4602 55.7393 14.4602C56.0873 14.4602 56.4378 14.3923 56.7596 14.2503C61.0234 12.3586 64.5206 10.443 67.4084 8.41736C70.9399 10.185 73.7518 12.3866 75.5411 14.9081C75.4704 14.9942 75.3971 15.0781 75.3238 15.1641C75.2742 15.2201 75.2245 15.2781 75.1748 15.334C70.7174 20.2972 61.2587 25.0522 47.5754 29.2095C47.4945 29.2335 47.4108 29.2575 47.3297 29.2836C47.0313 29.3734 46.7331 29.4634 46.4323 29.5514C32.8223 33.5706 18.9402 35.9322 14.0487 36.6981C12.937 33.2528 12.5864 29.8533 12.6257 26.8159C14.3181 26.556 16.0027 26.1841 17.648 25.8221C18.9376 25.5361 20.2717 25.2422 21.5587 25.0143C21.5795 25.0103 21.6005 25.0063 21.6214 25.0023C29.9894 23.3086 38.224 21.021 48.3235 17.5837C49.3516 17.2337 49.812 16.3139 49.3542 15.5301C48.8964 14.7462 47.6931 14.3923 46.6678 14.7422C36.7879 18.1055 28.7496 20.3411 20.6117 21.9889C19.228 22.2348 17.8495 22.5388 16.518 22.8327C15.2441 23.1147 14.0147 23.3846 12.8114 23.6006C13.2535 19.2533 14.3364 16.1299 14.5535 15.5321C15.9635 13.2985 18.1921 11.2688 21.182 9.49316C22.0713 8.96726 22.2309 7.98944 21.5429 7.30957C20.8524 6.6317 19.5758 6.50772 18.6865 7.03363C15.1369 9.14122 12.4844 11.5888 10.8025 14.3123C10.7606 14.3823 10.724 14.4522 10.6952 14.5262C10.5016 15.0162 6.02079 26.616 10.5409 38.7217V42.1671C4.60302 43.1968 0.179688 47.3042 0.179688 52.0812C0.179688 57.2483 5.27527 61.5415 11.8252 62.1693C14.8517 70.4299 22.9895 77.0726 33.4527 79.9741V87.0287C31.415 87.6487 26.5889 88.8384 19.6098 88.8384C14.305 88.8384 9.40562 90.1241 5.8089 92.4597C2.18078 94.8153 0.179688 98.0127 0.179688 101.458C0.179688 102.318 1.08999 103.014 2.21478 103.014H88.3008C89.4256 103.014 90.336 102.318 90.336 101.458C90.336 98.0127 88.3349 94.8153 84.7043 92.4557ZM79.6347 58.7C79.8546 57.4803 79.9695 56.2484 79.9695 55.0187V45.3925C83.6317 46.3404 86.2632 49.0118 86.2632 52.0812C86.2632 55.2826 83.4459 58.0021 79.6086 58.858C79.6191 58.806 79.6269 58.7521 79.6347 58.7ZM4.24987 52.0812C4.24987 49.0118 6.88138 46.3404 10.5435 45.3925V55.0187C10.5435 56.2504 10.6586 57.4803 10.8783 58.7C10.8888 58.7521 10.894 58.806 10.9045 58.858C7.06711 58.0001 4.24987 55.2826 4.24987 52.0812ZM76.2997 19.2673C76.3467 19.2273 76.3938 19.1854 76.4408 19.1454C76.569 19.0334 76.6946 18.9215 76.8175 18.8094C76.8411 18.7874 76.8672 18.7655 76.8908 18.7454C77.8142 22.6787 78.7558 29.5954 76.4645 36.6961C72.4126 36.0622 62.182 34.3386 51.0806 31.481C62.7131 27.8017 71.1544 23.7145 76.2997 19.2673ZM15.1055 59.2C15.1029 59.1839 15.0976 59.166 15.0924 59.1499C14.7706 57.7881 14.6163 56.4024 14.6163 55.0187V43.4949V39.7836C14.6346 39.7816 14.6556 39.7776 14.6765 39.7735C17.8285 39.2936 20.9623 38.7318 24.0803 38.1358C27.3658 37.508 30.633 36.828 33.8791 36.0902C36.0057 35.6063 38.1246 35.0984 40.2277 34.5604C40.2669 34.5505 40.3036 34.5405 40.3428 34.5306H50.1783C61.5282 37.4319 71.9522 39.1717 75.902 39.7816V43.4929V55.0167C75.902 56.3984 75.7424 57.7881 75.4234 59.1499C75.4207 59.166 75.4155 59.1819 75.4129 59.1978C73.3307 68.0043 64.7849 75.113 53.6807 77.5425C53.6625 77.5465 53.644 77.5505 53.6258 77.5545C50.908 78.1383 48.083 78.4423 45.2578 78.4423C42.4407 78.4423 39.5947 78.1524 36.8873 77.5545C36.8742 77.5525 36.8638 77.5485 36.8506 77.5465C25.7414 75.1189 17.1903 68.0083 15.1055 59.2ZM4.44345 99.9004C4.92737 97.9788 6.30851 96.2171 8.44563 94.8273C11.3047 92.9696 15.2703 91.9478 19.6098 91.9478C30.0863 91.9478 36.1888 89.5182 36.4425 89.4143C37.1069 89.1444 37.5229 88.6164 37.5229 88.0406C37.5229 88.0406 37.5229 80.8919 37.5229 80.8939C37.5281 81.4877 44.8445 81.5557 45.2552 81.5557C47.8553 81.5557 50.4502 81.3357 52.9876 80.8939V88.0425C52.9876 88.6184 53.4035 89.1464 54.068 89.4163C54.3217 89.5202 60.4242 91.9498 70.9006 91.9498C75.2401 91.9498 79.2057 92.9716 82.0649 94.8293C84.2046 96.2191 85.5832 97.9807 86.067 99.9024H4.44345V99.9004Z" fill="#111112"/>
</g>
<defs>
<clipPath id="clip0_97_2064">
<rect width="91.1463" height="102.381" fill="white" transform="translate(0 0.632812)"/>
</clipPath>
</defs>
</svg>
