<svg width="32" height="32" viewBox="0 0 32 32" fill="none" xmlns="http://www.w3.org/2000/svg">
<g id="simple-icons:instagram" clip-path="url(#clip0_166_2120)">
<path id="Vector" d="M9.37379 0.111687C7.67112 0.191687 6.50845 0.463687 5.49378 0.862354C4.42674 1.26656 3.4604 1.89805 2.66178 2.71302C1.85018 3.51384 1.22235 4.48151 0.821785 5.54902C0.428451 6.56769 0.160451 7.73302 0.0857846 9.43435C0.0111179 11.1357 -0.00621545 11.685 0.00178455 16.0304C0.00978455 20.3757 0.0297846 20.9197 0.112451 22.6264C0.193785 24.329 0.464451 25.4917 0.863118 26.5077C1.27378 27.5597 1.82312 28.4504 2.71378 29.3384C3.51538 30.1503 4.48399 30.7781 5.55245 31.1784C6.56979 31.5717 7.73379 31.8397 9.43645 31.9144C11.1405 31.989 11.6885 32.0064 16.0325 31.9984C20.3765 31.9904 20.9231 31.9704 22.6285 31.889C24.3351 31.809 25.4911 31.5357 26.5085 31.1384C27.575 30.734 28.5409 30.1025 29.3391 29.2877C30.151 28.4861 30.7789 27.5175 31.1791 26.449C31.5725 25.4317 31.8405 24.2677 31.9138 22.5664C31.9885 20.8597 32.0071 20.313 31.9978 15.969C31.9898 11.625 31.9711 11.0797 31.8898 9.37302C31.8098 7.66635 31.5378 6.50902 31.1378 5.49169C30.7338 4.42524 30.1028 3.45938 29.2885 2.66102C28.4872 1.84925 27.5191 1.22141 26.4511 0.821021C25.4324 0.429021 24.2698 0.159687 22.5658 0.0876872C20.8631 0.0116872 20.3151 -0.0083128 15.9698 -0.000312799C11.6245 0.0076872 11.0805 0.0276872 9.37379 0.111687ZM9.56045 29.0357C8.00045 28.969 7.15378 28.709 6.58978 28.4917C5.89373 28.2374 5.26392 27.8295 4.74712 27.2984C4.21425 26.7838 3.8041 26.1558 3.54712 25.461C3.32712 24.897 3.06312 24.0504 2.99112 22.4904C2.91112 20.805 2.89512 20.2984 2.88445 16.0264C2.87645 11.7544 2.89245 11.249 2.96578 9.56235C3.03245 8.00369 3.29378 7.15569 3.50978 6.59169C3.79778 5.84369 4.14578 5.31169 4.70312 4.74902C5.21808 4.21598 5.84654 3.80583 6.54179 3.54902C7.10579 3.32902 7.95112 3.06769 9.51112 2.99302C11.1978 2.91302 11.7031 2.89702 15.9751 2.88635C20.2458 2.87835 20.7524 2.89435 22.4418 2.96902C23.9991 3.03569 24.8471 3.29435 25.4111 3.51302C26.1578 3.80102 26.6911 4.14635 27.2538 4.70635C27.8165 5.26635 28.1618 5.79569 28.4538 6.54369C28.6738 7.10635 28.9365 7.95169 29.0098 9.51302C29.0898 11.1997 29.1084 11.7064 29.1165 15.977C29.1231 20.2477 29.1084 20.7544 29.0351 22.441C28.9671 24.001 28.7085 24.8477 28.4911 25.4144C28.2031 26.161 27.8551 26.6944 27.2965 27.2544C26.7819 27.7872 26.1539 28.1974 25.4591 28.4544C24.8965 28.6744 24.0485 28.937 22.4911 29.0117C20.8031 29.0917 20.2978 29.1077 16.0245 29.117C11.7511 29.1264 11.2485 29.1077 9.56045 29.0357ZM22.6045 7.44769C22.605 7.82748 22.7181 8.19859 22.9296 8.51407C23.1411 8.82955 23.4414 9.07522 23.7925 9.22001C24.1436 9.36481 24.5298 9.40221 24.9021 9.3275C25.2745 9.25279 25.6164 9.06932 25.8845 8.8003C26.1525 8.53128 26.3348 8.18879 26.4082 7.81616C26.4817 7.44352 26.4429 7.05749 26.2969 6.70688C26.1509 6.35627 25.9042 6.05684 25.588 5.84647C25.2717 5.6361 24.9002 5.52423 24.5205 5.52502C24.0115 5.52608 23.5237 5.7292 23.1644 6.08973C22.8052 6.45026 22.6037 6.9387 22.6045 7.44769ZM7.78579 16.0157C7.79003 18.1945 8.65964 20.2824 10.2033 21.8201C11.747 23.3578 13.8383 24.2193 16.0171 24.215C18.196 24.2108 20.2839 23.3412 21.8215 21.7975C23.3592 20.2538 24.2207 18.1625 24.2165 15.9837C24.185 13.8228 23.3035 11.7613 21.7628 10.2458C20.2222 8.73036 18.1464 7.88293 15.9853 7.88713C13.8242 7.89134 11.7518 8.74686 10.217 10.2683C8.68228 11.7898 7.80878 13.8547 7.78579 16.0157ZM10.6671 16.0104C10.665 14.9555 10.9757 13.9238 11.56 13.0455C12.1443 12.1673 12.9759 11.482 13.9496 11.0764C14.9233 10.6708 15.9955 10.5631 17.0305 10.7668C18.0654 10.9705 19.0168 11.4765 19.7641 12.2209C20.5115 12.9653 21.0213 13.9146 21.2292 14.9488C21.4371 15.9829 21.3336 17.0555 20.9319 18.0308C20.5302 19.0062 19.8482 19.8405 18.9724 20.4283C18.0965 21.0161 17.066 21.3309 16.0111 21.333C15.3107 21.3344 14.6169 21.1979 13.9693 20.9311C13.3217 20.6644 12.733 20.2727 12.2368 19.7785C11.7405 19.2842 11.3465 18.6971 11.0772 18.0505C10.8079 17.404 10.6685 16.7107 10.6671 16.0104Z" fill="black"/>
</g>
<defs>
<clipPath id="clip0_166_2120">
<rect width="32" height="32" fill="white"/>
</clipPath>
</defs>
</svg>
