<svg width="70" height="45" viewBox="0 0 70 45" fill="none" xmlns="http://www.w3.org/2000/svg">
<g clip-path="url(#clip0_37_864)">
<path d="M15.5753 41.131C15.8322 41.3463 16.1452 41.4521 16.4564 41.4521C16.8408 41.4521 17.2236 41.2907 17.4923 40.9796C17.9806 40.4146 17.9108 39.5654 17.3393 39.0828C16.6639 38.5145 16.0039 37.9125 15.3763 37.2919C9.39539 31.3796 6.26376 23.8647 7.21295 17.875C9.76452 17.4799 12.5883 17.7993 15.4494 18.7444C15.5702 18.8065 15.7029 18.8519 15.8406 18.8772C19.6493 20.209 23.5072 22.6354 26.855 25.9448C27.697 26.7772 28.4999 27.6616 29.2398 28.5697C29.711 29.1482 30.5683 29.239 31.1535 28.7732C31.7387 28.3074 31.8305 27.4599 31.3593 26.8814C30.5582 25.8977 29.6905 24.9426 28.7788 24.0413C25.3393 20.6412 21.3724 18.0936 17.3835 16.5903C17.2865 14.157 17.7033 11.9358 18.5862 10.1852C20.8332 10.6678 23.1586 12.0198 25.2492 14.0662C24.9583 15.2148 24.7252 16.4019 24.5569 17.6194C24.4547 18.3559 24.9753 19.0336 25.7203 19.1345C26.4654 19.2353 27.1509 18.7208 27.253 17.9843C28.1682 11.3926 31.0633 5.85856 35.0676 2.96795C39.0719 5.85856 41.967 11.3909 42.8822 17.9809C42.9842 18.7174 43.6697 19.232 44.4148 19.1311C45.1599 19.0303 45.6805 18.3509 45.5783 17.6161C45.41 16.3985 45.1769 15.2131 44.886 14.0662C46.9766 12.0198 49.3037 10.6678 51.5491 10.1852C52.4302 11.9358 52.8487 14.157 52.7517 16.5903C48.7627 18.0953 44.7959 20.6428 41.3564 24.0413C40.4446 24.9426 39.577 25.8977 38.7759 26.8814C38.3047 27.4599 38.3965 28.3074 38.9817 28.7732C39.5669 29.239 40.4242 29.1482 40.8953 28.5697C41.6353 27.6616 42.4382 26.7789 43.2802 25.9448C46.6279 22.6354 50.4842 20.2073 54.2929 18.8772C54.4323 18.8519 54.565 18.8065 54.6857 18.7444C57.5469 17.801 60.3707 17.4799 62.9222 17.875C63.8715 23.8664 60.7398 31.3813 54.7589 37.2919C54.1312 37.9125 53.4712 38.5145 52.7959 39.0828C52.2243 39.5637 52.1546 40.413 52.6411 40.9796C53.1276 41.5446 53.9866 41.6136 54.5599 41.1327C55.2896 40.5188 56.004 39.8664 56.6828 39.1955C63.5959 32.3633 67.02 23.4258 65.4109 16.4288C65.2952 15.9243 64.8972 15.5309 64.3851 15.4149C61.6345 14.796 58.588 14.9289 55.4835 15.7243C55.4547 12.7614 54.7402 10.0641 53.4168 7.98742C53.1378 7.55021 52.6292 7.30974 52.1087 7.3686C49.3751 7.68136 46.548 9.02661 44.0066 11.2043C42.2494 6.34957 39.3695 2.43322 35.7905 0.206832C35.3483 -0.068944 34.7835 -0.068944 34.3412 0.206832C30.7622 2.43322 27.8823 6.34957 26.1252 11.2043C23.5839 9.02661 20.7601 7.68136 18.0231 7.3686C17.5026 7.30974 16.9957 7.55021 16.7167 7.98742C15.395 10.0641 14.6823 12.7614 14.6533 15.7243C11.5506 14.9289 8.50234 14.796 5.75176 15.4149C5.24144 15.5292 4.8434 15.9243 4.72602 16.4288C3.11513 23.4258 6.54104 32.3617 13.4541 39.1955C14.1311 39.8647 14.8456 40.5155 15.5753 41.131Z" fill="black"/>
</g>
<path d="M21.5919 30.92C21.5652 31.1733 21.5452 31.42 21.5319 31.66C21.5252 31.8933 21.5219 32.0733 21.5219 32.2C21.5219 32.36 21.5252 32.51 21.5319 32.65C21.5385 32.79 21.5452 32.9133 21.5519 33.02H21.3219C21.2752 32.5533 21.2119 32.1867 21.1319 31.92C21.0519 31.6467 20.9119 31.45 20.7119 31.33C20.5119 31.21 20.2019 31.15 19.7819 31.15H19.2419V36.84C19.2419 37.1067 19.2652 37.3067 19.3119 37.44C19.3652 37.5733 19.4652 37.6633 19.6119 37.71C19.7585 37.7567 19.9719 37.7867 20.2519 37.8V38C20.0785 37.9867 19.8585 37.98 19.5919 37.98C19.3252 37.9733 19.0552 37.97 18.7819 37.97C18.4819 37.97 18.1985 37.9733 17.9319 37.98C17.6719 37.98 17.4619 37.9867 17.3019 38V37.8C17.5819 37.7867 17.7952 37.7567 17.9419 37.71C18.0885 37.6633 18.1852 37.5733 18.2319 37.44C18.2852 37.3067 18.3119 37.1067 18.3119 36.84V31.15H17.7719C17.3585 31.15 17.0485 31.21 16.8419 31.33C16.6419 31.45 16.5019 31.6467 16.4219 31.92C16.3419 32.1867 16.2785 32.5533 16.2319 33.02H16.0019C16.0152 32.9133 16.0219 32.79 16.0219 32.65C16.0285 32.51 16.0319 32.36 16.0319 32.2C16.0319 32.0733 16.0252 31.8933 16.0119 31.66C16.0052 31.42 15.9885 31.1733 15.9619 30.92C16.2419 30.9267 16.5452 30.9333 16.8719 30.94C17.2052 30.9467 17.5385 30.95 17.8719 30.95C18.2052 30.95 18.5085 30.95 18.7819 30.95C19.0552 30.95 19.3552 30.95 19.6819 30.95C20.0152 30.95 20.3485 30.9467 20.6819 30.94C21.0152 30.9333 21.3185 30.9267 21.5919 30.92ZM25.5928 30.78C26.0328 30.78 26.3928 30.8467 26.6728 30.98C26.9595 31.1067 27.2128 31.2567 27.4328 31.43C27.5661 31.53 27.6661 31.5433 27.7328 31.47C27.8061 31.39 27.8561 31.2067 27.8828 30.92H28.1128C28.0995 31.1667 28.0895 31.4667 28.0828 31.82C28.0761 32.1733 28.0728 32.64 28.0728 33.22H27.8428C27.7961 32.9333 27.7528 32.7067 27.7128 32.54C27.6728 32.3667 27.6228 32.22 27.5628 32.1C27.5095 31.98 27.4361 31.86 27.3428 31.74C27.1361 31.4667 26.8761 31.27 26.5628 31.15C26.2495 31.0233 25.9195 30.96 25.5728 30.96C25.2461 30.96 24.9495 31.0433 24.6828 31.21C24.4228 31.37 24.1961 31.6033 24.0028 31.91C23.8161 32.2167 23.6695 32.5867 23.5628 33.02C23.4628 33.4533 23.4128 33.94 23.4128 34.48C23.4128 35.04 23.4695 35.5367 23.5828 35.97C23.6961 36.3967 23.8528 36.7567 24.0528 37.05C24.2595 37.3433 24.4995 37.5667 24.7728 37.72C25.0528 37.8667 25.3528 37.94 25.6728 37.94C25.9728 37.94 26.2861 37.88 26.6128 37.76C26.9395 37.64 27.1961 37.4467 27.3828 37.18C27.5295 36.9867 27.6295 36.7767 27.6828 36.55C27.7428 36.3233 27.7961 36.0067 27.8428 35.6H28.0728C28.0728 36.2067 28.0761 36.6967 28.0828 37.07C28.0895 37.4367 28.0995 37.7467 28.1128 38H27.8828C27.8561 37.7133 27.8095 37.5333 27.7428 37.46C27.6828 37.3867 27.5795 37.3967 27.4328 37.49C27.1861 37.6633 26.9228 37.8167 26.6428 37.95C26.3695 38.0767 26.0161 38.14 25.5828 38.14C24.9495 38.14 24.3928 37.9967 23.9128 37.71C23.4395 37.4233 23.0695 37.01 22.8028 36.47C22.5428 35.93 22.4128 35.28 22.4128 34.52C22.4128 33.7733 22.5495 33.12 22.8228 32.56C23.0961 32 23.4695 31.5633 23.9428 31.25C24.4228 30.9367 24.9728 30.78 25.5928 30.78ZM31.8376 30.98C32.0909 30.98 32.3009 31.01 32.4676 31.07C32.6342 31.1233 32.7709 31.1933 32.8776 31.28C32.9642 31.3467 33.0342 31.42 33.0876 31.5C33.1409 31.58 33.1809 31.66 33.2076 31.74C33.2342 31.82 33.2476 31.8967 33.2476 31.97C33.2476 32.1367 33.1876 32.2667 33.0676 32.36C32.9542 32.4533 32.8276 32.5 32.6876 32.5C32.5542 32.5 32.4342 32.4567 32.3276 32.37C32.2209 32.2833 32.1676 32.16 32.1676 32C32.1676 31.8533 32.2176 31.73 32.3176 31.63C32.4176 31.5233 32.5442 31.4633 32.6976 31.45C32.6709 31.3633 32.5876 31.29 32.4476 31.23C32.3142 31.1633 32.1442 31.13 31.9376 31.13C31.5976 31.13 31.3176 31.2333 31.0976 31.44C30.8842 31.64 30.7776 31.9333 30.7776 32.32C30.7776 32.5067 30.8109 32.6967 30.8776 32.89C30.9509 33.0833 31.0876 33.2733 31.2876 33.46C31.4009 33.44 31.5176 33.4267 31.6376 33.42C31.7576 33.4067 31.8476 33.4 31.9076 33.4C32.0276 33.4 32.1242 33.42 32.1976 33.46C32.2709 33.5 32.3076 33.5567 32.3076 33.63C32.3076 33.69 32.2809 33.7367 32.2276 33.77C32.1809 33.8033 32.1142 33.82 32.0276 33.82C31.9009 33.82 31.7676 33.7933 31.6276 33.74C31.4876 33.68 31.3776 33.6333 31.2976 33.6C30.9109 33.7133 30.5976 33.9 30.3576 34.16C30.1176 34.4133 29.9976 34.7733 29.9976 35.24C29.9976 35.7 30.1176 36.09 30.3576 36.41C30.5976 36.73 30.9176 36.9767 31.3176 37.15C31.7242 37.3167 32.1776 37.4 32.6776 37.4C33.0309 37.4 33.3642 37.36 33.6776 37.28C33.9976 37.1933 34.2776 37.07 34.5176 36.91C34.7642 36.75 34.9576 36.56 35.0976 36.34C35.2376 36.1133 35.3076 35.8567 35.3076 35.57C35.3076 35.4433 35.2809 35.2833 35.2276 35.09C35.1742 34.89 35.0642 34.6967 34.8976 34.51C34.7309 34.3167 34.4742 34.1667 34.1276 34.06L34.2476 33.96C34.7342 34.1067 35.0809 34.3433 35.2876 34.67C35.4942 34.99 35.5976 35.35 35.5976 35.75C35.5976 36.15 35.4776 36.5333 35.2376 36.9C34.9976 37.2667 34.6509 37.5667 34.1976 37.8C33.7442 38.0267 33.1942 38.14 32.5476 38.14C32.1142 38.14 31.7009 38.0833 31.3076 37.97C30.9209 37.8567 30.5776 37.6933 30.2776 37.48C29.9776 37.26 29.7409 36.9967 29.5676 36.69C29.3942 36.3833 29.3076 36.0367 29.3076 35.65C29.3076 35.29 29.3776 34.9833 29.5176 34.73C29.6576 34.47 29.8309 34.2567 30.0376 34.09C30.2442 33.9233 30.4509 33.7967 30.6576 33.71C30.8642 33.6167 31.0309 33.5533 31.1576 33.52C30.9376 33.42 30.7509 33.3033 30.5976 33.17C30.4509 33.03 30.3376 32.88 30.2576 32.72C30.1842 32.5533 30.1476 32.39 30.1476 32.23C30.1476 32.07 30.1842 31.9167 30.2576 31.77C30.3309 31.6167 30.4376 31.48 30.5776 31.36C30.7176 31.24 30.8909 31.1467 31.0976 31.08C31.3109 31.0133 31.5576 30.98 31.8376 30.98ZM35.4776 30.78C35.8909 30.78 36.2376 30.9 36.5176 31.14C36.7976 31.3733 36.9376 31.7033 36.9376 32.13C36.9376 32.3567 36.8942 32.56 36.8076 32.74C36.7276 32.9133 36.6142 33.0667 36.4676 33.2C36.3276 33.3333 36.1676 33.4433 35.9876 33.53C35.8342 33.6033 35.6309 33.6833 35.3776 33.77C35.1309 33.8567 34.8642 33.9433 34.5776 34.03C34.2976 34.1167 34.0276 34.2033 33.7676 34.29C33.5142 34.37 33.3076 34.44 33.1476 34.5C32.9009 34.5933 32.6909 34.71 32.5176 34.85C32.3509 34.9833 32.2676 35.1567 32.2676 35.37C32.2676 35.5433 32.3176 35.69 32.4176 35.81C32.5176 35.93 32.6376 36.02 32.7776 36.08C32.9242 36.14 33.0609 36.17 33.1876 36.17C33.2476 36.17 33.3209 36.1633 33.4076 36.15C33.5009 36.13 33.5842 36.1033 33.6576 36.07C33.7309 36.0367 33.7742 35.9967 33.7876 35.95C33.6809 35.93 33.5742 35.8833 33.4676 35.81C33.3676 35.73 33.3176 35.6067 33.3176 35.44C33.3176 35.28 33.3709 35.1533 33.4776 35.06C33.5842 34.9667 33.7142 34.92 33.8676 34.92C34.0276 34.92 34.1542 34.97 34.2476 35.07C34.3476 35.17 34.3976 35.3 34.3976 35.46C34.3976 35.6467 34.3342 35.8067 34.2076 35.94C34.0876 36.0667 33.9342 36.1633 33.7476 36.23C33.5676 36.29 33.3876 36.32 33.2076 36.32C33.0209 36.32 32.8309 36.28 32.6376 36.2C32.4442 36.12 32.2842 35.9967 32.1576 35.83C32.0309 35.6567 31.9676 35.43 31.9676 35.15C31.9676 34.9167 32.0176 34.71 32.1176 34.53C32.2242 34.35 32.3809 34.19 32.5876 34.05C32.7942 33.91 33.0476 33.79 33.3476 33.69C33.5476 33.6233 33.7909 33.55 34.0776 33.47C34.3642 33.39 34.6576 33.3033 34.9576 33.21C35.2642 33.1167 35.5409 33.0133 35.7876 32.9C36.1209 32.7467 36.3476 32.59 36.4676 32.43C36.5876 32.27 36.6476 32.1067 36.6476 31.94C36.6476 31.7467 36.5942 31.5767 36.4876 31.43C36.3809 31.2767 36.2376 31.1567 36.0576 31.07C35.8842 30.9767 35.6942 30.93 35.4876 30.93C35.4076 30.93 35.3409 30.9367 35.2876 30.95C35.2342 30.9633 35.2009 30.9867 35.1876 31.02C35.2809 31.0667 35.3509 31.1333 35.3976 31.22C35.4442 31.3067 35.4676 31.3933 35.4676 31.48C35.4676 31.62 35.4109 31.7367 35.2976 31.83C35.1909 31.9233 35.0609 31.97 34.9076 31.97C34.7809 31.97 34.6609 31.93 34.5476 31.85C34.4342 31.7633 34.3776 31.6367 34.3776 31.47C34.3776 31.2967 34.4342 31.16 34.5476 31.06C34.6676 30.96 34.8109 30.89 34.9776 30.85C35.1509 30.8033 35.3176 30.78 35.4776 30.78ZM39.6967 30.81C40.0301 30.81 40.2834 30.85 40.4567 30.93C40.6301 31.0033 40.7834 31.0867 40.9167 31.18C40.9967 31.2267 41.0601 31.2633 41.1067 31.29C41.1601 31.31 41.2101 31.32 41.2567 31.32C41.3234 31.32 41.3701 31.2833 41.3967 31.21C41.4301 31.1367 41.4567 31.0267 41.4767 30.88H41.7067C41.7001 30.9933 41.6901 31.13 41.6767 31.29C41.6701 31.4433 41.6634 31.65 41.6567 31.91C41.6567 32.1633 41.6567 32.5 41.6567 32.92H41.4267C41.4067 32.6 41.3367 32.2933 41.2167 32C41.0967 31.7067 40.9201 31.4667 40.6867 31.28C40.4601 31.0933 40.1601 31 39.7867 31C39.4334 31 39.1401 31.1067 38.9067 31.32C38.6801 31.5333 38.5667 31.8133 38.5667 32.16C38.5667 32.46 38.6434 32.7133 38.7967 32.92C38.9501 33.12 39.1534 33.3033 39.4067 33.47C39.6667 33.63 39.9467 33.8033 40.2467 33.99C40.5934 34.2033 40.9001 34.4167 41.1667 34.63C41.4401 34.8367 41.6534 35.0667 41.8067 35.32C41.9667 35.5733 42.0467 35.88 42.0467 36.24C42.0467 36.6667 41.9501 37.02 41.7567 37.3C41.5634 37.58 41.3067 37.79 40.9867 37.93C40.6667 38.07 40.3134 38.14 39.9267 38.14C39.5734 38.14 39.2934 38.1 39.0867 38.02C38.8801 37.94 38.7034 37.8567 38.5567 37.77C38.4101 37.6767 38.2967 37.63 38.2167 37.63C38.1501 37.63 38.1001 37.6667 38.0667 37.74C38.0401 37.8133 38.0167 37.9233 37.9967 38.07H37.7667C37.7801 37.93 37.7867 37.7667 37.7867 37.58C37.7934 37.3867 37.7967 37.1367 37.7967 36.83C37.8034 36.5233 37.8067 36.1367 37.8067 35.67H38.0367C38.0634 36.07 38.1367 36.4433 38.2567 36.79C38.3834 37.1367 38.5734 37.4167 38.8267 37.63C39.0867 37.8367 39.4301 37.94 39.8567 37.94C40.0767 37.94 40.2834 37.8967 40.4767 37.81C40.6767 37.7167 40.8401 37.5733 40.9667 37.38C41.0934 37.18 41.1567 36.9233 41.1567 36.61C41.1567 36.3367 41.0901 36.1 40.9567 35.9C40.8301 35.6933 40.6501 35.5033 40.4167 35.33C40.1834 35.15 39.9101 34.9667 39.5967 34.78C39.2834 34.5867 38.9901 34.39 38.7167 34.19C38.4434 33.99 38.2234 33.76 38.0567 33.5C37.8967 33.2333 37.8167 32.9133 37.8167 32.54C37.8167 32.1467 37.9034 31.8233 38.0767 31.57C38.2567 31.31 38.4901 31.12 38.7767 31C39.0634 30.8733 39.3701 30.81 39.6967 30.81ZM44.4171 32.74V38.88C44.4171 39.1667 44.5004 39.3567 44.6671 39.45C44.8404 39.55 45.0771 39.6 45.3771 39.6V39.81C45.2304 39.8033 45.0271 39.7933 44.7671 39.78C44.5071 39.7733 44.2304 39.77 43.9371 39.77C43.7304 39.77 43.5238 39.7733 43.3171 39.78C43.1171 39.7933 42.9638 39.8033 42.8571 39.81V39.6C43.0971 39.6 43.2671 39.5567 43.3671 39.47C43.4671 39.3833 43.5171 39.22 43.5171 38.98V33.94C43.5171 33.64 43.4638 33.42 43.3571 33.28C43.2504 33.1333 43.0504 33.06 42.7571 33.06V32.85C42.9704 32.87 43.1771 32.88 43.3771 32.88C43.5704 32.88 43.7538 32.87 43.9271 32.85C44.1071 32.8233 44.2704 32.7867 44.4171 32.74ZM46.0171 32.71C46.3704 32.71 46.6871 32.8067 46.9671 33C47.2471 33.1867 47.4671 33.4633 47.6271 33.83C47.7938 34.1967 47.8771 34.65 47.8771 35.19C47.8771 35.55 47.8338 35.9067 47.7471 36.26C47.6604 36.6067 47.5238 36.9233 47.3371 37.21C47.1571 37.49 46.9204 37.7167 46.6271 37.89C46.3404 38.0567 45.9938 38.14 45.5871 38.14C45.2738 38.14 45.0004 38.0667 44.7671 37.92C44.5404 37.7733 44.3871 37.5967 44.3071 37.39L44.4071 37.25C44.5004 37.4367 44.6338 37.5933 44.8071 37.72C44.9871 37.8467 45.2104 37.91 45.4771 37.91C45.8504 37.91 46.1404 37.7933 46.3471 37.56C46.5538 37.3267 46.6971 37.0167 46.7771 36.63C46.8638 36.2367 46.9071 35.8033 46.9071 35.33C46.9071 34.7967 46.8638 34.36 46.7771 34.02C46.6904 33.68 46.5604 33.4267 46.3871 33.26C46.2138 33.0933 46.0004 33.01 45.7471 33.01C45.4204 33.01 45.1238 33.1467 44.8571 33.42C44.5904 33.6867 44.4204 34.0933 44.3471 34.64L44.2271 34.5C44.3004 33.9333 44.5004 33.4933 44.8271 33.18C45.1604 32.8667 45.5571 32.71 46.0171 32.71ZM50.0577 38.07C49.7843 38.07 49.5477 38.02 49.3477 37.92C49.1477 37.8133 48.9943 37.6667 48.8877 37.48C48.7877 37.2933 48.7377 37.0767 48.7377 36.83C48.7377 36.5367 48.8043 36.2967 48.9377 36.11C49.0777 35.9233 49.2543 35.7733 49.4677 35.66C49.681 35.5467 49.9043 35.4533 50.1377 35.38C50.3777 35.3 50.6043 35.2267 50.8177 35.16C51.031 35.0867 51.2043 35.0033 51.3377 34.91C51.4777 34.8167 51.5477 34.6933 51.5477 34.54V33.92C51.5477 33.64 51.5043 33.4267 51.4177 33.28C51.3377 33.1333 51.2277 33.0367 51.0877 32.99C50.9477 32.9367 50.791 32.91 50.6177 32.91C50.451 32.91 50.271 32.9333 50.0777 32.98C49.891 33.0267 49.741 33.1233 49.6277 33.27C49.7543 33.2967 49.8643 33.3633 49.9577 33.47C50.051 33.5767 50.0977 33.7133 50.0977 33.88C50.0977 34.0467 50.0443 34.18 49.9377 34.28C49.831 34.3733 49.6943 34.42 49.5277 34.42C49.3343 34.42 49.191 34.36 49.0977 34.24C49.011 34.1133 48.9677 33.9733 48.9677 33.82C48.9677 33.6467 49.011 33.5067 49.0977 33.4C49.1843 33.2933 49.2943 33.1933 49.4277 33.1C49.581 32.9933 49.7777 32.9033 50.0177 32.83C50.2643 32.75 50.541 32.71 50.8477 32.71C51.121 32.71 51.3543 32.7433 51.5477 32.81C51.741 32.87 51.901 32.96 52.0277 33.08C52.201 33.24 52.3143 33.4367 52.3677 33.67C52.421 33.8967 52.4477 34.17 52.4477 34.49V37.27C52.4477 37.4367 52.471 37.5567 52.5177 37.63C52.571 37.7033 52.651 37.74 52.7577 37.74C52.831 37.74 52.901 37.7233 52.9677 37.69C53.0343 37.6567 53.1143 37.6033 53.2077 37.53L53.3177 37.7C53.1777 37.8067 53.0443 37.8967 52.9177 37.97C52.791 38.0367 52.621 38.07 52.4077 38.07C52.2143 38.07 52.0543 38.0367 51.9277 37.97C51.801 37.9033 51.7043 37.8067 51.6377 37.68C51.5777 37.5467 51.5477 37.38 51.5477 37.18C51.3677 37.48 51.151 37.7033 50.8977 37.85C50.651 37.9967 50.371 38.07 50.0577 38.07ZM50.4177 37.67C50.6377 37.67 50.841 37.6067 51.0277 37.48C51.221 37.3533 51.3943 37.1633 51.5477 36.91V34.95C51.4677 35.0633 51.351 35.16 51.1977 35.24C51.0443 35.3133 50.8777 35.39 50.6977 35.47C50.5177 35.5433 50.3443 35.6333 50.1777 35.74C50.0177 35.84 49.8843 35.9733 49.7777 36.14C49.671 36.3067 49.6177 36.5233 49.6177 36.79C49.6177 37.0567 49.6877 37.27 49.8277 37.43C49.9743 37.59 50.171 37.67 50.4177 37.67Z" fill="black"/>
<defs>
<clipPath id="clip0_37_864">
<rect width="70" height="70" fill="white"/>
</clipPath>
</defs>
</svg>
