<svg width="90" height="91" viewBox="0 0 90 91" fill="none" xmlns="http://www.w3.org/2000/svg">
<g id="IMAGE" clip-path="url(#clip0_97_2061)">
<path id="Vector" d="M17.1496 36.5321C18.2935 36.5321 19.2209 35.7456 19.2209 34.7753C19.2209 33.8051 18.2935 33.0186 17.1496 33.0186C16.0055 33.0186 15.0781 33.8051 15.0781 34.7753C15.0781 35.7456 16.0055 36.5321 17.1496 36.5321Z" fill="#151717"/>
<path id="Vector_2" d="M87.2101 32.9334C85.9063 31.6628 83.9782 30.9354 81.9211 30.9354H65.1655V27.927C65.1655 23.5212 60.9389 19.9364 55.7439 19.9364H54.1208V19.7125C54.1208 16.5635 51.1774 13.9892 47.5012 13.8589V10.8627C49.0405 10.5572 50.377 10.118 51.5008 9.53991C53.5886 8.46536 54.4933 7.16688 54.8842 6.26767C55.7562 4.25919 54.8391 1.95733 52.7964 1.02861C52.2152 0.76648 51.599 0.632812 50.9624 0.632812C49.5767 0.632812 48.2749 1.28553 47.489 2.35312C47.0919 2.57359 45.573 3.23846 41.7025 3.23846H32.0597C27.1616 3.23846 24.118 6.07845 24.118 10.6526C24.118 12.8938 26.0216 14.7183 28.3632 14.7183C30.4489 14.7183 32.1887 13.2704 32.5428 11.3696H37.1748V13.8589C33.4987 13.9892 30.5553 16.5635 30.5553 19.7125V19.9364H28.9302C23.7352 19.9364 19.5085 23.5212 19.5085 27.927V28.045H13.4375C10.7438 28.045 8.55167 29.9042 8.55167 32.1887V40.0195C7.07998 41.0871 6.14457 42.6703 6.14457 44.4392V47.0205C3.35266 48.7114 1.45114 51.4125 1.20756 54.5111C1.10317 55.8704 1.02948 57.3112 0.990591 58.7902C0.972169 59.5384 1.67015 60.1581 2.55234 60.1754C3.43248 60.1929 4.16526 59.5991 4.18369 58.851C4.22052 57.4119 4.29216 56.0127 4.3945 54.6899C4.60738 51.9541 6.59692 49.6435 9.36016 48.55C9.38064 48.543 9.39907 48.5342 9.41748 48.5274C10.5228 48.102 11.7468 47.8729 12.9606 47.8729H21.3363C22.5541 47.8729 23.7721 48.102 24.8794 48.5274C24.8999 48.5342 24.9183 48.543 24.9367 48.55C27.7306 49.6488 29.6977 52.0808 29.9024 54.6899C30.064 56.747 30.144 58.8613 30.144 60.9705C30.144 61.9687 30.1112 62.9651 30.0866 63.9616C30.0846 63.9962 30.0846 64.031 30.0824 64.0674C30.0682 64.4199 28.9118 65.392 28.6701 65.7566C28.273 66.3554 27.9517 66.9856 27.7142 67.6418C27.174 69.1312 27.0592 70.7023 27.0266 72.2507C26.9795 74.5699 27.2517 76.8995 27.8555 79.1632C27.8576 79.1736 27.8596 79.1823 27.8637 79.1927C26.8547 81.5466 24.2592 83.1038 21.2831 83.1038H13.0138C9.72452 83.1038 6.84254 81.1143 6.15685 78.3733C5.06997 74.0248 4.41907 69.2562 4.22052 64.1976C4.19187 63.4495 3.44886 62.8627 2.57077 62.8888C1.68856 62.913 0.996731 63.5397 1.02743 64.2879C1.23212 69.5045 1.90759 74.4327 3.0313 78.9358C4.02608 82.9215 8.22622 85.8153 13.0138 85.8153H21.2872C24.3983 85.8153 27.223 84.647 29.1123 82.7218C30.1214 85.0011 31.4805 87.1155 33.161 88.9834C33.4639 89.3185 33.9327 89.5163 34.43 89.5163H64.5781C65.0755 89.5163 65.5462 89.3185 65.8471 88.9834C66.3343 88.4435 66.7928 87.8811 67.2246 87.303H80.9612C81.8433 87.303 82.5597 86.6972 82.5597 85.9472V74.7608L86.3526 51.5236C86.4734 50.7823 85.8634 50.0984 84.9893 49.996C84.1133 49.8936 83.3088 50.4108 83.1881 51.1521L80.1547 69.7405H71.8035C71.6949 68.85 71.4658 67.9716 71.0953 67.1331C69.9573 64.5605 67.6279 62.5312 64.707 61.4722L64.6497 61.1163L60.6706 36.7368C60.6564 36.65 60.6482 36.5615 60.644 36.4747C60.644 36.4696 60.644 36.466 60.644 36.4608C60.6154 35.5841 61.17 34.7943 61.9766 34.2753C62.6254 33.8586 63.4769 33.6469 64.2854 33.6469H81.9231C83.0551 33.6469 84.1051 34.0357 84.8031 34.7144C85.3967 35.2925 85.6586 36.0112 85.5399 36.7351L84.0724 45.729C83.9516 46.4703 84.5616 47.1543 85.4355 47.2567C86.3096 47.3591 87.116 46.8418 87.2367 46.1005L88.7044 37.1049C88.95 35.5929 88.4199 34.1104 87.2101 32.9334ZM32.0577 8.65806C31.3208 8.65806 30.4059 8.72922 29.8757 9.22397C29.4602 9.61109 29.4112 10.1544 29.4112 10.6526C29.4112 11.4512 28.8584 12.0084 28.3612 12.0084C27.8637 12.0084 27.3111 11.4512 27.3111 10.6526C27.3111 6.5593 30.2851 5.94999 32.0577 5.94999H41.7005C43.1906 5.94999 44.7379 5.87014 46.2178 5.59933C47.493 5.36498 48.9197 5.01779 49.8572 4.20537C50.1989 3.90853 50.3648 3.34608 50.9604 3.34608C51.0668 3.34608 51.1712 3.37038 51.2797 3.419C51.8446 3.67591 52.2212 4.54909 51.8795 5.33373C51.6052 5.96562 50.416 7.75189 45.6774 8.41155C45.6652 8.41329 45.655 8.41329 45.6426 8.41502C44.3409 8.59556 43.0187 8.65979 41.7005 8.65979H38.7713L32.0577 8.65806ZM44.302 11.2793V13.8503H40.37V11.3679C40.3741 11.4269 44.302 11.3071 44.302 11.2793ZM37.4635 16.5601H38.7713H45.9005H47.2085C49.2554 16.5601 50.9215 17.9731 50.9215 19.7091V19.933H33.7504V19.7091C33.7504 17.9731 35.4166 16.5601 37.4635 16.5601ZM11.7488 32.1939C11.7488 32.1922 11.7488 32.1887 11.7488 32.1869C11.7488 31.3971 12.5062 30.7548 13.4375 30.7548H20.8615C20.8983 30.7548 20.9331 30.7583 20.9679 30.76C20.976 30.76 20.9822 30.7617 20.9883 30.7617C22.8612 30.8781 22.5501 32.7268 22.5501 33.8378C22.5501 35.1867 22.5501 36.5355 22.5501 37.8843C22.5501 38.1638 22.5501 38.4416 22.5501 38.721C22.1387 38.6568 21.719 38.6239 21.2995 38.6239C21.2995 38.6239 13.0015 38.6239 12.9974 38.6239C12.6106 38.6239 12.1582 38.7193 11.7509 38.7088C11.6301 36.5511 11.7488 34.3568 11.7488 32.1939ZM24.9593 45.644C24.9593 45.2499 21.7866 45.1596 21.3363 45.1596H12.9647C11.7386 45.1596 10.5085 45.3245 9.34175 45.644C9.34175 45.644 9.34175 44.4375 9.34175 44.4357C9.34175 42.7606 11.0243 41.3318 13.0015 41.3318H21.3035C22.5051 41.3318 23.6656 41.8596 24.3369 42.7033C25.0371 43.5834 24.9593 44.6319 24.9593 45.644ZM69.6891 83.3103C69.7136 83.2427 69.7321 83.1906 69.7464 83.1576C70.3011 81.8279 70.7964 80.4739 71.1587 79.0955C71.7319 76.9186 72.0122 74.6775 71.9816 72.4469H79.3646V74.6636V84.588C79.3646 84.588 68.9748 84.588 68.9706 84.588C69.2449 84.5897 69.5478 83.7061 69.6891 83.3103ZM67.9738 67.8292H60.4291C59.547 67.8292 58.8306 68.4351 58.8306 69.185C58.8306 69.935 59.5449 70.5408 60.4291 70.5408H68.6779C68.6841 70.598 68.6881 70.657 68.6943 70.7143C69.1917 76.3284 67.6566 82.1819 63.7716 86.8047H35.2385C33.2797 84.4751 31.8612 81.741 31.0405 78.7899C30.2933 76.101 30.06 73.2939 30.3301 70.5408H54.0368C54.9189 70.5408 55.6354 69.935 55.6354 69.185C55.6354 68.4351 54.9211 67.8292 54.0368 67.8292H31.0303C31.4437 66.9977 32.0413 66.2356 32.8027 65.576C34.3973 64.1942 36.6754 63.3714 38.9822 63.3714H60.026C60.7566 63.3714 61.4771 63.4512 62.1711 63.6057C64.7296 64.1698 66.9259 65.7218 67.9738 67.8292ZM61.9684 31.2565C61.9684 31.2479 60.0628 32.095 59.8806 32.2164C56.7447 34.3361 57.5533 37.433 58.0303 40.358L61.3543 60.724C61.3441 60.7223 61.3338 60.7223 61.3216 60.7223C61.1394 60.705 60.9551 60.6928 60.771 60.6824C60.73 60.6807 60.6912 60.6772 60.6502 60.6755C60.4435 60.6668 60.2347 60.6599 60.0238 60.6599H38.9822C37.969 60.6599 36.9579 60.7709 35.9774 60.988C35.5006 61.0938 35.0298 61.224 34.5733 61.3768C34.4054 61.4341 33.3391 61.7483 33.3369 61.8663C33.3411 61.5642 33.3411 61.2657 33.3411 60.9671C33.3411 58.7972 33.2572 56.6237 33.0914 54.5076C32.9706 52.9644 32.4138 51.442 31.4948 50.1071C31.0773 49.5012 30.584 48.9318 30.0272 48.4128C29.7387 48.1437 29.4336 47.8885 29.1123 47.6489C28.9916 47.5587 28.1544 47.1004 28.1544 47.0049V44.434C28.1544 42.7623 27.264 41.1044 25.7473 40.0109V32.1852C25.7473 32.088 25.7411 31.9926 25.7329 31.8971C25.7309 31.878 25.7289 31.8571 25.7268 31.8381C25.5713 30.2566 24.3657 28.9252 22.7036 28.3488V27.9235C22.7036 25.0123 25.4975 22.6428 28.9302 22.6428H32.1519H52.5181H55.7398C59.1723 22.6428 61.9663 25.0123 61.9663 27.9235C61.9684 27.9253 61.9684 31.2565 61.9684 31.2565Z" fill="#151717"/>
</g>
<defs>
<clipPath id="clip0_97_2061">
<rect width="90" height="90" fill="white" transform="translate(0 0.632812)"/>
</clipPath>
</defs>
</svg>
