<svg width="33" height="35" viewBox="0 0 33 35" fill="none" xmlns="http://www.w3.org/2000/svg">
<path id="Vector" d="M27.8898 5.79757C26.4217 4.23353 24.673 2.99346 22.7457 2.14966C20.8184 1.30587 18.7511 0.875246 16.6644 0.882913C7.92106 0.882913 0.7951 8.39845 0.7951 17.6198C0.7951 20.5753 1.53172 23.4464 2.90887 25.9797L0.666992 34.6606L9.07403 32.3299C11.396 33.6642 14.0062 34.3735 16.6644 34.3735C25.4077 34.3735 32.5337 26.858 32.5337 17.6366C32.5337 13.1611 30.8843 8.95578 27.8898 5.79757ZM16.6644 31.5362C14.2944 31.5362 11.9725 30.8606 9.93875 29.5939L9.45835 29.2899L4.46217 30.6748L5.79128 25.5406L5.47101 25.0171C4.1543 22.7995 3.45515 20.2362 3.45332 17.6198C3.45332 9.95222 9.37828 3.70335 16.6484 3.70335C20.1713 3.70335 23.4861 5.15579 25.9682 7.79045C27.1972 9.0807 28.1711 10.6154 28.8336 12.3056C29.4961 13.9957 29.8338 15.8078 29.8274 17.6366C29.8594 25.3042 23.9345 31.5362 16.6644 31.5362ZM23.9024 21.1326C23.5021 20.93 21.5485 19.9166 21.1962 19.7646C20.8279 19.6295 20.5716 19.562 20.2994 19.9673C20.0272 20.3895 19.2746 21.3353 19.0504 21.6055C18.8262 21.8926 18.586 21.9264 18.1856 21.7069C17.7853 21.5042 16.5042 21.0482 14.999 19.6295C13.814 18.5149 13.0293 17.1469 12.7891 16.7246C12.5649 16.3024 12.7571 16.0829 12.9653 15.8633C13.1414 15.6775 13.3656 15.3735 13.5578 15.1371C13.7499 14.9007 13.83 14.7149 13.9581 14.4447C14.0862 14.1575 14.0222 13.9211 13.9261 13.7184C13.83 13.5158 13.0293 11.4553 12.7091 10.6109C12.3888 9.80022 12.0525 9.90155 11.8123 9.88467H11.0437C10.7714 9.88467 10.3551 9.986 9.98679 10.4082C9.6345 10.8304 8.60964 11.8438 8.60964 13.9042C8.60964 15.9646 10.0348 17.9575 10.227 18.2278C10.4192 18.5149 13.0293 22.7371 17.0007 24.5442C17.9454 24.9833 18.6821 25.2366 19.2585 25.4224C20.2033 25.7433 21.0681 25.6926 21.7566 25.5913C22.5253 25.4731 24.1106 24.578 24.4309 23.5984C24.7672 22.6189 24.7672 21.7913 24.6551 21.6055C24.543 21.4197 24.3028 21.3353 23.9024 21.1326Z" fill="black"/>
</svg>
